<svg width="18" height="18" viewBox="0 0 18 18" fill="none" xmlns="http://www.w3.org/2000/svg">
<g clip-path="url(#clip0)">
<path fill-rule="evenodd" clip-rule="evenodd" d="M11.7473 11.7473C11.8518 11.6427 11.9758 11.5597 12.1124 11.5031C12.249 11.4465 12.3954 11.4174 12.5432 11.4174C12.6911 11.4174 12.8375 11.4465 12.974 11.5031C13.1106 11.5597 13.2347 11.6427 13.3392 11.7473L17.6704 16.0786C17.8815 16.2895 18.0002 16.5757 18.0003 16.8741C18.0004 17.1725 17.8819 17.4588 17.671 17.6699C17.46 17.881 17.1739 17.9996 16.8754 17.9997C16.577 17.9998 16.2908 17.8814 16.0797 17.6704L11.7484 13.3392C11.6438 13.2347 11.5608 13.1106 11.5042 12.9741C11.4476 12.8375 11.4185 12.6911 11.4185 12.5432C11.4185 12.3954 11.4476 12.249 11.5042 12.1124C11.5608 11.9759 11.6438 11.8518 11.7484 11.7473H11.7473Z" fill="black"/>
<path fill-rule="evenodd" clip-rule="evenodd" d="M7.3125 13.5C8.12505 13.5 8.92965 13.34 9.68035 13.029C10.4311 12.7181 11.1132 12.2623 11.6877 11.6877C12.2623 11.1132 12.7181 10.4311 13.029 9.68035C13.34 8.92965 13.5 8.12505 13.5 7.3125C13.5 6.49995 13.34 5.69535 13.029 4.94465C12.7181 4.19394 12.2623 3.51184 11.6877 2.93728C11.1132 2.36271 10.4311 1.90695 9.68035 1.596C8.92965 1.28504 8.12505 1.125 7.3125 1.125C5.67147 1.125 4.09766 1.7769 2.93728 2.93728C1.7769 4.09766 1.125 5.67147 1.125 7.3125C1.125 8.95353 1.7769 10.5273 2.93728 11.6877C4.09766 12.8481 5.67147 13.5 7.3125 13.5ZM14.625 7.3125C14.625 9.2519 13.8546 11.1119 12.4832 12.4832C11.1119 13.8546 9.2519 14.625 7.3125 14.625C5.3731 14.625 3.51314 13.8546 2.14178 12.4832C0.770422 11.1119 0 9.2519 0 7.3125C0 5.3731 0.770422 3.51314 2.14178 2.14178C3.51314 0.770422 5.3731 0 7.3125 0C9.2519 0 11.1119 0.770422 12.4832 2.14178C13.8546 3.51314 14.625 5.3731 14.625 7.3125Z" fill="black"/>
</g>
<defs>
<clipPath id="clip0">
<rect width="18" height="18" fill="white"/>
</clipPath>
</defs>
</svg>
